HIERARCHY
ROOT Pelvis
{

	OFFSET     0.000000     0.000000     0.000000
	CHANNELS 6 Xposition Yposition Zposition Zrotation Xrotation Yrotation
	JOINT LowerBack
	{

		OFFSET    -0.000691     0.176488     0.017766
		CHANNELS 3 Zrotation Xrotation Yrotation
		JOINT Chest
		{

			OFFSET    -0.002754     0.128976    -0.000512
			CHANNELS 3 Zrotation Xrotation Yrotation
			JOINT back3
			{

				OFFSET     0.002471     0.201657    -0.000850
				CHANNELS 3 Zrotation Xrotation Yrotation
				JOINT Neck
				{

					OFFSET     0.001840     0.072570     0.000595
					CHANNELS 3 Zrotation Xrotation Yrotation
					JOINT Head
					{

						OFFSET     0.003323     0.152818     0.030907
						CHANNELS 3 Zrotation Xrotation Yrotation
						JOINT joint7
						{

							OFFSET     0.000612     0.183936     0.002625
							CHANNELS 3 Zrotation Xrotation Yrotation
							End Site
							{
								OFFSET     0.000000     0.000000     0.018310
							}
						}

					}

				}

				JOINT LeftCollar
				{

					OFFSET     0.053456     0.093486     0.002205
					CHANNELS 3 Zrotation Xrotation Yrotation
					JOINT LeftShoulder
					{

						OFFSET     0.112884    -0.020868     0.002319
						CHANNELS 3 Zrotation Xrotation Yrotation
						JOINT LeftElbow
						{

							OFFSET     0.297302     0.003523    -0.020737
							CHANNELS 3 Zrotation Xrotation Yrotation
							JOINT LeftWrist
							{

								OFFSET     0.290007     0.004431    -0.007313
								CHANNELS 3 Zrotation Xrotation Yrotation
								JOINT lf_hand
								{

									OFFSET     0.117001    -0.002589    -0.008771
									CHANNELS 3 Zrotation Xrotation Yrotation
									End Site
									{
										OFFSET     0.000000    -0.009821     0.000000
									}
								}

							}

						}

					}

				}

				JOINT RightCollar
				{

					OFFSET    -0.048666     0.096092     0.000301
					CHANNELS 3 Zrotation Xrotation Yrotation
					JOINT RightShoulder
					{

						OFFSET    -0.115072    -0.022479    -0.001894
						CHANNELS 3 Zrotation Xrotation Yrotation
						JOINT RightElbow
						{

							OFFSET    -0.297072     0.004954    -0.020752
							CHANNELS 3 Zrotation Xrotation Yrotation
							JOINT RightWrist
							{

								OFFSET    -0.292425    -0.005826    -0.023258
								CHANNELS 3 Zrotation Xrotation Yrotation
								JOINT rt_hand
								{

									OFFSET    -0.118185    -0.001061    -0.015047
									CHANNELS 3 Zrotation Xrotation Yrotation
									End Site
									{
										OFFSET     0.000000    -0.009987     0.000000
									}
								}

							}

						}

					}

				}

			}

			JOINT joint13
			{

				OFFSET     0.125914     0.117470     0.000000
				CHANNELS 3 Zrotation Xrotation Yrotation
				End Site
				{
					OFFSET     0.000000     0.000000    -0.017144
				}
			}

			JOINT joint14
			{

				OFFSET    -0.120063     0.114907     0.000000
				CHANNELS 3 Zrotation Xrotation Yrotation
				End Site
				{
					OFFSET     0.000000     0.000000    -0.016479
				}
			}

		}

	}

	JOINT RightHip
	{

		OFFSET    -0.109283    -0.057257     0.000987
		CHANNELS 3 Zrotation Xrotation Yrotation
		JOINT RightKnee
		{

			OFFSET     0.002149    -0.429339     0.038617
			CHANNELS 3 Zrotation Xrotation Yrotation
			JOINT RightAnkle
			{

				OFFSET    -0.001765    -0.522522    -0.077092
				CHANNELS 3 Zrotation Xrotation Yrotation
				JOINT r_ball
				{

					OFFSET    -0.000000    -0.037315     0.142913
					CHANNELS 3 Zrotation Xrotation Yrotation
					End Site
					{
						OFFSET     0.000000     0.000000     0.014648
					}
				}

			}

		}

	}

	JOINT LeftHip
	{

		OFFSET     0.098180    -0.056757     0.003895
		CHANNELS 3 Zrotation Xrotation Yrotation
		JOINT LeftKnee
		{

			OFFSET     0.007057    -0.430531     0.035812
			CHANNELS 3 Zrotation Xrotation Yrotation
			JOINT LeftAnkle
			{

				OFFSET    -0.005475    -0.521755    -0.078136
				CHANNELS 3 Zrotation Xrotation Yrotation
				JOINT lf_ball
				{

					OFFSET     0.000065    -0.036737     0.143337
					CHANNELS 3 Zrotation Xrotation Yrotation
					End Site
					{
						OFFSET     0.000000     0.000000     0.014648
					}
				}

			}

		}

	}

}

MOTION
Frames: 7
Frame Time: 0.033333
    0.000000     0.951670     0.000000    11.930281     5.392552   133.003815     3.701524    12.053926     1.727494     2.097399     4.504709     6.390567     0.000000     0.000000     0.000000     0.000000     0.000000     0.000000    -2.646713     2.730836    -6.267057     0.000000     0.000000     0.000000    14.231171     1.380305     5.456027   -96.015244    29.955395     4.395129     0.500906     1.455387   -37.982536     7.461894     3.205484     9.326938     0.000000     0.000000     0.000000   -22.725370     3.897456    -9.223998    94.008263    30.292170    -1.039227    -0.551159     1.512046    40.052998    -7.732180     6.003538    -3.457145     0.000000     0.000000     0.000000     0.000000     0.000000     0.000000     0.000000     0.000000     0.000000     4.244246    22.017784    -9.663383     0.000000   -10.909518     0.000000    -0.058690    -5.835348    -8.578504     0.000000     0.000000     0.000000     0.700428    15.365052     9.489078     0.000000     3.015608     0.000000     4.169880   -13.088694    14.728609     0.000000     0.000000     0.000000 
    0.002333     0.949091    -0.009394    11.573153     4.918741   133.314728     3.825521    12.032216     1.623772     2.216093     4.805352     6.346299     0.000000     0.000000     0.000000     0.000000     0.000000     0.000000    -2.853519     1.553982    -6.655993     0.000000     0.000000     0.000000    14.427658     1.323149     5.151964   -96.453621    29.698656     4.260632     0.500651     1.455825   -37.954002     7.317898     3.371796     9.251018     0.000000     0.000000     0.000000   -22.626337     3.902525    -9.290492    93.700989    29.910246    -1.506357    -0.552423     1.526592    40.279091    -7.970912     5.762931    -3.314203     0.000000     0.000000     0.000000     0.000000     0.000000     0.000000     0.000000     0.000000     0.000000     3.668095    19.062012    -9.781463     0.000000    -5.550125     0.000000    -1.073368    -6.505091    -8.485385     0.000000     0.000000     0.000000     0.505927    15.099837     9.358248     0.000000     3.526934     0.000000     4.463560   -14.454158    14.761183     0.000000     0.000000     0.000000 
    0.004057     0.946556    -0.018550    11.272237     4.498006   133.634369     3.985828    12.108227     1.498862     2.318217     5.140448     6.322412     0.000000     0.000000     0.000000     0.000000     0.000000     0.000000    -3.093853     0.303418    -7.072004     0.000000     0.000000     0.000000    14.622329     1.262939     4.833608   -96.870811    29.424671     3.994065     0.497964     1.449291   -37.922920     7.179140     3.546190     9.187664     0.000000     0.000000     0.000000   -22.517212     3.913118    -9.354985    93.302895    29.484871    -1.836656    -0.564401     1.529510    40.507015    -8.223562     5.512407    -3.143756     0.000000     0.000000     0.000000     0.000000     0.000000     0.000000     0.000000     0.000000     0.000000     3.207425    17.281908   -10.048930     0.000000    -2.309155     0.000000    -1.476355    -7.131801    -8.224778     0.000000     0.000000     0.000000     0.411045    14.491592     8.878760     0.000000     4.745091     0.000000     4.214633   -15.963470    15.031552     0.000000     0.000000     0.000000 
    0.005338     0.944101    -0.027531    11.014911     4.081775   133.953293     4.173502    12.218377     1.376451     2.426504     5.496020     6.289413     0.000000     0.000000     0.000000     0.000000     0.000000     0.000000    -3.359261    -0.972260    -7.494646     0.000000     0.000000     0.000000    14.815886     1.207941     4.564018   -97.068787    29.390579     3.623886     0.497143     1.449455   -37.860874     7.157682     3.573833     9.101563     0.000000     0.000000     0.000000   -22.413761     3.918255    -9.426827    92.848289    29.026695    -2.097267    -0.572548     1.541393    40.752888    -8.497656     5.253989    -2.960181     0.000000     0.000000     0.000000     0.000000     0.000000     0.000000     0.000000     0.000000     0.000000     2.729949    15.470747   -10.312205     0.000000     0.923485     0.000000    -1.913203    -7.468818    -7.977868     0.000000     0.000000     0.000000     0.305669    13.950353     8.229743     0.000000     5.858269     0.000000     3.786258   -17.518179    15.442430     0.000000     0.000000     0.000000 
    0.006343     0.941763    -0.036405    10.774429     3.696797   134.270401     4.356631    12.336766     1.240067     2.520164     5.872366     6.256805     0.000000     0.000000     0.000000     0.000000     0.000000     0.000000    -3.608271    -2.261734    -7.932241     0.000000     0.000000     0.000000    15.024114     1.159128     4.343469   -96.887352    29.743181     3.189787     0.496864     1.449554   -37.838741     7.299790     3.305164     9.015256     0.000000     0.000000     0.000000   -22.304270     3.929926    -9.498210    92.389137    28.560438    -2.324022    -0.578207     1.546897    40.988029    -8.764244     5.009667    -2.784482     0.000000     0.000000     0.000000     0.000000     0.000000     0.000000     0.000000     0.000000     0.000000     2.112606    13.163037   -10.859653     0.000000     4.969077     0.000000    -2.825452    -7.241595    -7.118892     0.000000     0.000000     0.000000     0.156609    13.495596     7.496683    -0.000418     6.797838     0.007034     3.302217   -19.012432    15.857779     0.000000     0.000000     0.000000 
    0.007237     0.939589    -0.045235    10.548348     3.305128   134.588608     4.531017    12.439829     1.118694     2.622630     6.227975     6.216568     0.000000     0.000000     0.000000     0.000000     0.000000     0.000000    -3.858080    -3.515026    -8.374978     0.000000     0.000000     0.000000    15.223933     1.130520     4.176793   -96.465263    30.342463     2.730256     0.496511     1.449709   -37.809994     7.565337     2.905398     8.922704     0.000000     0.000000     0.000000   -22.195982     3.931977    -9.557224    91.962776    28.103966    -2.603218    -0.583747     1.552369    41.214191    -9.007452     4.772381    -2.631171     0.000000     0.000000     0.000000     0.000000     0.000000     0.000000     0.000000     0.000000     0.000000     1.105887     8.587382   -11.961493     0.000000    12.485677     0.000000    -5.597682    -4.190215    -5.246466     0.000000     0.000000     0.000000    -0.007712    13.155138     6.850014    -0.000464     7.547175     0.007042     2.897442   -20.350445    16.198111     0.000000     0.000000     0.000000 
    0.008186     0.937623    -0.054087    10.318774     2.914865   134.902344     4.683543    12.479419     1.008956     2.740523     6.556506     6.182439     0.000000     0.000000     0.000000     0.000000     0.000000     0.000000    -4.089583    -4.678541    -8.799583     0.000000     0.000000     0.000000    15.401608     1.121963     4.064085   -96.003487    30.997665     2.252280     0.495657     1.450135   -37.739243     7.903650     2.645296     8.842257     0.000000     0.000000     0.000000   -22.115564     3.944541    -9.620924    91.603271    27.684019    -2.968758    -0.585105     1.566687    41.435413    -9.212837     4.529875    -2.522732     0.000000     0.000000     0.000000     0.000000     0.000000     0.000000     0.000000     0.000000     0.000000     0.411467     5.918821   -12.543838     0.000000    16.533281     0.000000    -7.245752    -1.367921    -4.209962     0.000000     0.000000     0.000000    -0.167788    12.784209     6.400326     0.000000     8.291371     0.000000     2.560829   -21.354677    16.372469     0.000000     0.000000     0.000000 
